<svg xmlns="http://www.w3.org/2000/svg" viewBox="0 0 100 100">
  <!-- Coffee bean base -->
  <path d="M45,85 C25,75 15,45 35,25 C55,5 85,15 75,45 C65,75 55,90 45,85 Z" fill="#c0a16b" />
  <!-- Bean cleft -->
  <path d="M35,25 Q55,45 60,65" fill="none" stroke="#0a1f1b" stroke-width="4" stroke-linecap="round" />
  
  <!-- Bonsai leaves/branches emerging -->
  <path d="M55,35 Q65,20 80,25 Q90,30 85,40 Q75,45 65,40" fill="#1e4d43" />
  <path d="M45,25 Q50,10 65,15 Q75,20 70,30 Q60,35 50,30" fill="#14362f" />
  <path d="M30,30 Q25,15 40,10 Q50,10 45,20 Q40,25 35,25" fill="#1e4d43" />
</svg>
